<mxfile host="65bd71144e">
    <diagram id="MJdYC1vso9QQcDfNjhb9" name="Page-1">
        <mxGraphModel dx="2288" dy="1617" grid="1" gridSize="10" guides="1" tooltips="1" connect="1" arrows="1" fold="1" page="1" pageScale="1" pageWidth="1169" pageHeight="827" background="#ffffff" math="0" shadow="0">
            <root>
                <mxCell id="0"/>
                <mxCell id="1" parent="0"/>
                <mxCell id="fkgH5sSesJA9m9F06kSH-47" style="edgeStyle=orthogonalEdgeStyle;orthogonalLoop=1;jettySize=auto;html=1;exitX=0.25;exitY=0;exitDx=0;exitDy=0;entryX=1;entryY=0.5;entryDx=0;entryDy=0;strokeColor=#006658;fontColor=#5C5C5C;" parent="1" source="fkgH5sSesJA9m9F06kSH-1" target="fkgH5sSesJA9m9F06kSH-40" edge="1">
                    <mxGeometry relative="1" as="geometry">
                        <mxPoint x="-130" y="-140" as="targetPoint"/>
                    </mxGeometry>
                </mxCell>
                <mxCell id="fkgH5sSesJA9m9F06kSH-53" style="edgeStyle=orthogonalEdgeStyle;orthogonalLoop=1;jettySize=auto;html=1;strokeColor=#006658;fontColor=#5C5C5C;" parent="1" source="fkgH5sSesJA9m9F06kSH-1" target="fkgH5sSesJA9m9F06kSH-25" edge="1">
                    <mxGeometry relative="1" as="geometry"/>
                </mxCell>
                <mxCell id="fkgH5sSesJA9m9F06kSH-67" style="edgeStyle=orthogonalEdgeStyle;orthogonalLoop=1;jettySize=auto;html=1;entryX=0;entryY=0.5;entryDx=0;entryDy=0;strokeColor=#006658;fontColor=#5C5C5C;" parent="1" source="fkgH5sSesJA9m9F06kSH-1" target="fkgH5sSesJA9m9F06kSH-66" edge="1">
                    <mxGeometry relative="1" as="geometry"/>
                </mxCell>
                <mxCell id="fkgH5sSesJA9m9F06kSH-1" value="Salarie" style="swimlane;childLayout=stackLayout;horizontal=1;startSize=27;horizontalStack=0;fillColor=#21C0A5;fontColor=#5C5C5C;fontSize=14;fontStyle=0;strokeWidth=2;resizeParent=0;resizeLast=1;shadow=0;dashed=0;align=center;strokeColor=#006658;rounded=1;" parent="1" vertex="1">
                    <mxGeometry x="-40" y="-517" width="160" height="261" as="geometry"/>
                </mxCell>
                <mxCell id="fkgH5sSesJA9m9F06kSH-2" value="+ nom&#10;+ nonJeuneFille&#10;+ prenom&#10;+ bithday&#10;+ lieuNaissance&#10;+ dptNaissance&#10;+ sexe&#10;+ numINSEE&#10;+ carnetDelivre&#10;+ carnet&#10;+ mail&#10;+ password&#10;+ agence&#10;+ numCarnetAcces" style="align=left;strokeColor=none;fillColor=none;spacingLeft=4;fontSize=12;verticalAlign=top;resizable=0;rotatable=0;part=1;fontColor=#5C5C5C;rounded=1;" parent="fkgH5sSesJA9m9F06kSH-1" vertex="1">
                    <mxGeometry y="27" width="160" height="234" as="geometry"/>
                </mxCell>
                <mxCell id="fkgH5sSesJA9m9F06kSH-3" value="Cofrend" style="swimlane;childLayout=stackLayout;horizontal=1;startSize=30;horizontalStack=0;fillColor=#21C0A5;fontColor=#5C5C5C;fontSize=14;fontStyle=0;strokeWidth=2;resizeParent=0;resizeLast=1;shadow=0;dashed=0;align=center;strokeColor=#006658;rounded=1;" parent="1" vertex="1">
                    <mxGeometry x="260" y="-270" width="160" height="62" as="geometry"/>
                </mxCell>
                <mxCell id="fkgH5sSesJA9m9F06kSH-4" value="+ name" style="align=left;strokeColor=none;fillColor=none;spacingLeft=4;fontSize=12;verticalAlign=top;resizable=0;rotatable=0;part=1;fontColor=#5C5C5C;rounded=1;" parent="fkgH5sSesJA9m9F06kSH-3" vertex="1">
                    <mxGeometry y="30" width="160" height="32" as="geometry"/>
                </mxCell>
                <mxCell id="fkgH5sSesJA9m9F06kSH-5" value="ProcQualif-PT" style="swimlane;childLayout=stackLayout;horizontal=1;startSize=30;horizontalStack=0;fillColor=#21C0A5;fontSize=14;fontStyle=0;strokeWidth=2;resizeParent=0;resizeLast=1;shadow=0;dashed=0;align=center;strokeColor=#006658;fontColor=#5C5C5C;rounded=1;" parent="1" vertex="1">
                    <mxGeometry x="810" y="-292" width="160" height="72" as="geometry"/>
                </mxCell>
                <mxCell id="fkgH5sSesJA9m9F06kSH-6" value="+ CC.P/50C" style="align=left;strokeColor=none;fillColor=none;spacingLeft=4;fontSize=12;verticalAlign=top;resizable=0;rotatable=0;part=1;fontColor=#5C5C5C;rounded=1;" parent="fkgH5sSesJA9m9F06kSH-5" vertex="1">
                    <mxGeometry y="30" width="160" height="42" as="geometry"/>
                </mxCell>
                <mxCell id="fkgH5sSesJA9m9F06kSH-7" value="ProcQualif-UT" style="swimlane;childLayout=stackLayout;horizontal=1;startSize=30;horizontalStack=0;fillColor=#21C0A5;fontSize=14;fontStyle=0;strokeWidth=2;resizeParent=0;resizeLast=1;shadow=0;dashed=0;align=center;strokeColor=#006658;fontColor=#5C5C5C;rounded=1;" parent="1" vertex="1">
                    <mxGeometry x="630" y="-292" width="160" height="372" as="geometry"/>
                </mxCell>
                <mxCell id="fkgH5sSesJA9m9F06kSH-8" value="+ CC.P/009&#10;+ CC.P/009A&#10;+ CC.P/018&#10;+ CC.P/033&#10;+ CC.P/086&#10;+ CC.P/088&#10;+ CC.P/090&#10;+ CC.P/091&#10;+ CC.P/091A&#10;+ CC.P/092&#10;+ CC.P/092A&#10;+ CC.P/093&#10;+ CC.P/094&#10;+ CC.P/095&#10;+ CC.P/096&#10;+ CC.P/097&#10;+ CC.P/0101&#10;+ CC.P/0101A&#10;+ CC.P/0102&#10;+ CC.P/0106&#10;+CC.P/0141&#10;+ CC.P/0172&#10;+ CC.P/0173" style="align=left;strokeColor=none;fillColor=none;spacingLeft=4;fontSize=12;verticalAlign=top;resizable=0;rotatable=0;part=1;fontColor=#5C5C5C;rounded=1;" parent="fkgH5sSesJA9m9F06kSH-7" vertex="1">
                    <mxGeometry y="30" width="160" height="342" as="geometry"/>
                </mxCell>
                <mxCell id="fkgH5sSesJA9m9F06kSH-9" value="ProcedureQualifie" style="swimlane;childLayout=stackLayout;horizontal=1;startSize=30;horizontalStack=0;fillColor=#21C0A5;fontColor=#5C5C5C;fontSize=14;fontStyle=0;strokeWidth=2;resizeParent=0;resizeLast=1;shadow=0;dashed=0;align=center;strokeColor=#006658;rounded=1;" parent="1" vertex="1">
                    <mxGeometry x="50" y="-150" width="160" height="120" as="geometry"/>
                </mxCell>
                <mxCell id="fkgH5sSesJA9m9F06kSH-10" value="+ numero&#10;+ nom&#10;+ reference&#10;+ indice" style="align=left;strokeColor=none;fillColor=none;spacingLeft=4;fontSize=12;verticalAlign=top;resizable=0;rotatable=0;part=1;fontColor=#5C5C5C;rounded=1;" parent="fkgH5sSesJA9m9F06kSH-9" vertex="1">
                    <mxGeometry y="30" width="160" height="90" as="geometry"/>
                </mxCell>
                <mxCell id="fkgH5sSesJA9m9F06kSH-13" value="Habilitations" style="swimlane;childLayout=stackLayout;horizontal=1;startSize=30;horizontalStack=0;fillColor=#21C0A5;fontColor=#5C5C5C;fontSize=14;fontStyle=0;strokeWidth=2;resizeParent=0;resizeLast=1;shadow=0;dashed=0;align=center;strokeColor=#006658;rounded=1;" parent="1" vertex="1">
                    <mxGeometry x="-40" y="40" width="200" height="140" as="geometry"/>
                </mxCell>
                <mxCell id="fkgH5sSesJA9m9F06kSH-14" value="+ numeroCertificat&#10;+ nom&#10;+ codeOrganismeFormation&#10;+ dateHabilitation&#10;+ duree" style="align=left;strokeColor=none;fillColor=none;spacingLeft=4;fontSize=12;verticalAlign=top;resizable=0;rotatable=0;part=1;fontColor=#5C5C5C;rounded=1;" parent="fkgH5sSesJA9m9F06kSH-13" vertex="1">
                    <mxGeometry y="30" width="200" height="110" as="geometry"/>
                </mxCell>
                <mxCell id="fkgH5sSesJA9m9F06kSH-15" value="Cofrend" style="swimlane;childLayout=stackLayout;horizontal=1;startSize=30;horizontalStack=0;fillColor=#21C0A5;fontSize=14;fontStyle=0;strokeWidth=2;resizeParent=0;resizeLast=1;shadow=0;dashed=0;align=center;strokeColor=#006658;fontColor=#5C5C5C;rounded=1;" parent="1" vertex="1">
                    <mxGeometry x="440" y="-292" width="160" height="132" as="geometry"/>
                </mxCell>
                <mxCell id="fkgH5sSesJA9m9F06kSH-16" value="+ visuel&#10;+ ressuage&#10;+ magnetoscopie&#10;+ ultrason&#10;+ radiographie&#10;+ courantDeFoucault" style="align=left;strokeColor=none;fillColor=none;spacingLeft=4;fontSize=12;verticalAlign=top;resizable=0;rotatable=0;part=1;fontColor=#5C5C5C;rounded=1;" parent="fkgH5sSesJA9m9F06kSH-15" vertex="1">
                    <mxGeometry y="30" width="160" height="102" as="geometry"/>
                </mxCell>
                <mxCell id="fkgH5sSesJA9m9F06kSH-18" value="Niveau" style="swimlane;childLayout=stackLayout;horizontal=1;startSize=30;horizontalStack=0;fillColor=#21C0A5;fontColor=#5C5C5C;fontSize=14;fontStyle=0;strokeWidth=2;resizeParent=0;resizeLast=1;shadow=0;dashed=0;align=center;strokeColor=#006658;rounded=1;" parent="1" vertex="1">
                    <mxGeometry x="250" y="-149" width="160" height="100" as="geometry"/>
                </mxCell>
                <mxCell id="fkgH5sSesJA9m9F06kSH-19" value="+ niveau (1, 2 ou 3)" style="align=left;strokeColor=none;fillColor=none;spacingLeft=4;fontSize=12;verticalAlign=top;resizable=0;rotatable=0;part=1;fontColor=#5C5C5C;rounded=1;" parent="fkgH5sSesJA9m9F06kSH-18" vertex="1">
                    <mxGeometry y="30" width="160" height="70" as="geometry"/>
                </mxCell>
                <mxCell id="fkgH5sSesJA9m9F06kSH-29" value="" style="group;fontColor=#5C5C5C;rounded=1;" parent="1" vertex="1" connectable="0">
                    <mxGeometry x="200" y="-330" width="80" height="26" as="geometry"/>
                </mxCell>
                <mxCell id="fkgH5sSesJA9m9F06kSH-25" value="1 : n" style="text;align=center;verticalAlign=middle;spacingLeft=4;spacingRight=4;strokeColor=#006658;fillColor=#21C0A5;rotatable=0;points=[[0,0.5],[1,0.5]];portConstraint=eastwest;fontSize=14;fontColor=#5C5C5C;rounded=1;" parent="fkgH5sSesJA9m9F06kSH-29" vertex="1">
                    <mxGeometry width="80" height="26" as="geometry"/>
                </mxCell>
                <mxCell id="fkgH5sSesJA9m9F06kSH-34" value="" style="group;rotation=-90;fontColor=#5C5C5C;rounded=1;" parent="1" vertex="1" connectable="0">
                    <mxGeometry x="-70" y="-160" width="80" height="26" as="geometry"/>
                </mxCell>
                <mxCell id="fkgH5sSesJA9m9F06kSH-35" style="edgeStyle=orthogonalEdgeStyle;orthogonalLoop=1;jettySize=auto;html=1;exitX=0.5;exitY=0;exitDx=0;exitDy=0;entryX=0.5;entryY=0;entryDx=0;entryDy=0;strokeColor=#006658;fontColor=#5C5C5C;" parent="fkgH5sSesJA9m9F06kSH-34" edge="1">
                    <mxGeometry relative="1" as="geometry"/>
                </mxCell>
                <mxCell id="fkgH5sSesJA9m9F06kSH-36" value="1 : n" style="text;align=center;verticalAlign=middle;spacingLeft=4;spacingRight=4;strokeColor=#006658;fillColor=#21C0A5;rotatable=0;points=[[0,0.5],[1,0.5]];portConstraint=eastwest;fontSize=14;rotation=-90;fontColor=#5C5C5C;rounded=1;" parent="fkgH5sSesJA9m9F06kSH-34" vertex="1">
                    <mxGeometry width="80" height="26" as="geometry"/>
                </mxCell>
                <mxCell id="fkgH5sSesJA9m9F06kSH-38" value="" style="group;rotation=-90;fontColor=#5C5C5C;rounded=1;" parent="1" vertex="1" connectable="0">
                    <mxGeometry x="-160" y="-150" width="80" height="26" as="geometry"/>
                </mxCell>
                <mxCell id="fkgH5sSesJA9m9F06kSH-39" style="edgeStyle=orthogonalEdgeStyle;orthogonalLoop=1;jettySize=auto;html=1;exitX=0.5;exitY=0;exitDx=0;exitDy=0;entryX=0.5;entryY=0;entryDx=0;entryDy=0;strokeColor=#006658;fontColor=#5C5C5C;" parent="fkgH5sSesJA9m9F06kSH-38" edge="1">
                    <mxGeometry relative="1" as="geometry"/>
                </mxCell>
                <mxCell id="fkgH5sSesJA9m9F06kSH-40" value="1 : n" style="text;align=center;verticalAlign=middle;spacingLeft=4;spacingRight=4;strokeColor=#006658;fillColor=#21C0A5;rotatable=0;points=[[0,0.5],[1,0.5]];portConstraint=eastwest;fontSize=14;rotation=-90;fontColor=#5C5C5C;rounded=1;" parent="fkgH5sSesJA9m9F06kSH-38" vertex="1">
                    <mxGeometry width="80" height="26" as="geometry"/>
                </mxCell>
                <mxCell id="fkgH5sSesJA9m9F06kSH-42" value="" style="group;rotation=0;fontColor=#5C5C5C;rounded=1;" parent="1" vertex="1" connectable="0">
                    <mxGeometry x="220" y="10" width="80" height="26" as="geometry"/>
                </mxCell>
                <mxCell id="fkgH5sSesJA9m9F06kSH-43" style="edgeStyle=orthogonalEdgeStyle;orthogonalLoop=1;jettySize=auto;html=1;exitX=0.5;exitY=0;exitDx=0;exitDy=0;entryX=0.5;entryY=0;entryDx=0;entryDy=0;strokeColor=#006658;fontColor=#5C5C5C;" parent="fkgH5sSesJA9m9F06kSH-42" edge="1">
                    <mxGeometry relative="1" as="geometry"/>
                </mxCell>
                <mxCell id="fkgH5sSesJA9m9F06kSH-44" value="1 : n" style="text;align=center;verticalAlign=middle;spacingLeft=4;spacingRight=4;strokeColor=#006658;fillColor=#21C0A5;rotatable=0;points=[[0,0.5],[1,0.5]];portConstraint=eastwest;fontSize=14;rotation=0;fontColor=#5C5C5C;rounded=1;" parent="fkgH5sSesJA9m9F06kSH-42" vertex="1">
                    <mxGeometry width="80" height="26" as="geometry"/>
                </mxCell>
                <mxCell id="fkgH5sSesJA9m9F06kSH-46" style="edgeStyle=orthogonalEdgeStyle;orthogonalLoop=1;jettySize=auto;html=1;entryX=0.5;entryY=1;entryDx=0;entryDy=0;strokeColor=#006658;fontColor=#5C5C5C;" parent="1" source="fkgH5sSesJA9m9F06kSH-44" target="fkgH5sSesJA9m9F06kSH-19" edge="1">
                    <mxGeometry relative="1" as="geometry"/>
                </mxCell>
                <mxCell id="fkgH5sSesJA9m9F06kSH-48" style="edgeStyle=orthogonalEdgeStyle;orthogonalLoop=1;jettySize=auto;html=1;exitX=0;exitY=0.5;exitDx=0;exitDy=0;entryX=0;entryY=0.25;entryDx=0;entryDy=0;strokeColor=#006658;fontColor=#5C5C5C;" parent="1" source="fkgH5sSesJA9m9F06kSH-40" target="fkgH5sSesJA9m9F06kSH-14" edge="1">
                    <mxGeometry relative="1" as="geometry"/>
                </mxCell>
                <mxCell id="fkgH5sSesJA9m9F06kSH-51" style="edgeStyle=orthogonalEdgeStyle;orthogonalLoop=1;jettySize=auto;html=1;entryX=1;entryY=0.5;entryDx=0;entryDy=0;strokeColor=#006658;fontColor=#5C5C5C;" parent="1" source="fkgH5sSesJA9m9F06kSH-2" target="fkgH5sSesJA9m9F06kSH-36" edge="1">
                    <mxGeometry relative="1" as="geometry"/>
                </mxCell>
                <mxCell id="fkgH5sSesJA9m9F06kSH-52" style="edgeStyle=orthogonalEdgeStyle;orthogonalLoop=1;jettySize=auto;html=1;exitX=0;exitY=0.5;exitDx=0;exitDy=0;entryX=0.013;entryY=0.422;entryDx=0;entryDy=0;entryPerimeter=0;strokeColor=#006658;fontColor=#5C5C5C;" parent="1" source="fkgH5sSesJA9m9F06kSH-36" target="fkgH5sSesJA9m9F06kSH-10" edge="1">
                    <mxGeometry relative="1" as="geometry"/>
                </mxCell>
                <mxCell id="fkgH5sSesJA9m9F06kSH-55" value="" style="edgeStyle=orthogonalEdgeStyle;orthogonalLoop=1;jettySize=auto;html=1;entryX=0.563;entryY=0;entryDx=0;entryDy=0;entryPerimeter=0;strokeColor=#006658;fontColor=#5C5C5C;" parent="1" source="fkgH5sSesJA9m9F06kSH-25" target="fkgH5sSesJA9m9F06kSH-3" edge="1">
                    <mxGeometry relative="1" as="geometry">
                        <mxPoint x="360" y="-317" as="targetPoint"/>
                    </mxGeometry>
                </mxCell>
                <mxCell id="fkgH5sSesJA9m9F06kSH-56" style="edgeStyle=orthogonalEdgeStyle;orthogonalLoop=1;jettySize=auto;html=1;exitX=1;exitY=0.5;exitDx=0;exitDy=0;entryX=0.45;entryY=0.962;entryDx=0;entryDy=0;entryPerimeter=0;strokeColor=#006658;fontColor=#5C5C5C;" parent="1" source="fkgH5sSesJA9m9F06kSH-14" target="fkgH5sSesJA9m9F06kSH-44" edge="1">
                    <mxGeometry relative="1" as="geometry">
                        <mxPoint x="280" y="67" as="targetPoint"/>
                    </mxGeometry>
                </mxCell>
                <mxCell id="fkgH5sSesJA9m9F06kSH-61" value="CarnetAcces" style="swimlane;childLayout=stackLayout;horizontal=1;startSize=30;horizontalStack=0;fillColor=#21C0A5;fontColor=#5C5C5C;fontSize=14;fontStyle=0;strokeWidth=2;resizeParent=0;resizeLast=1;shadow=0;dashed=0;align=center;strokeColor=#006658;rounded=1;" parent="1" vertex="1">
                    <mxGeometry x="220" y="-517" width="160" height="133" as="geometry"/>
                </mxCell>
                <mxCell id="fkgH5sSesJA9m9F06kSH-62" value="+ numero&#10;+ salarie_id" style="align=left;strokeColor=none;fillColor=none;spacingLeft=4;fontSize=12;verticalAlign=top;resizable=0;rotatable=0;part=1;fontColor=#5C5C5C;rounded=1;" parent="fkgH5sSesJA9m9F06kSH-61" vertex="1">
                    <mxGeometry y="30" width="160" height="103" as="geometry"/>
                </mxCell>
                <mxCell id="fkgH5sSesJA9m9F06kSH-65" value="" style="group;fillColor=#21C0A5;strokeColor=#006658;fontColor=#5C5C5C;rounded=1;" parent="1" vertex="1" connectable="0">
                    <mxGeometry x="130" y="-580" width="80" height="26" as="geometry"/>
                </mxCell>
                <mxCell id="fkgH5sSesJA9m9F06kSH-66" value="1 : 1" style="text;align=center;verticalAlign=middle;spacingLeft=4;spacingRight=4;strokeColor=#006658;fillColor=#21C0A5;rotatable=0;points=[[0,0.5],[1,0.5]];portConstraint=eastwest;fontSize=14;fontColor=#5C5C5C;rounded=1;" parent="fkgH5sSesJA9m9F06kSH-65" vertex="1">
                    <mxGeometry width="80" height="26" as="geometry"/>
                </mxCell>
                <mxCell id="fkgH5sSesJA9m9F06kSH-68" style="edgeStyle=orthogonalEdgeStyle;orthogonalLoop=1;jettySize=auto;html=1;exitX=1;exitY=0.5;exitDx=0;exitDy=0;entryX=0.5;entryY=0;entryDx=0;entryDy=0;strokeColor=#006658;fontColor=#5C5C5C;" parent="1" source="fkgH5sSesJA9m9F06kSH-66" target="fkgH5sSesJA9m9F06kSH-61" edge="1">
                    <mxGeometry relative="1" as="geometry"/>
                </mxCell>
                <mxCell id="fkgH5sSesJA9m9F06kSH-69" value="Employeur" style="swimlane;childLayout=stackLayout;horizontal=1;startSize=30;horizontalStack=0;fillColor=#21C0A5;fontColor=#5C5C5C;fontSize=14;fontStyle=0;strokeWidth=2;resizeParent=0;resizeLast=1;shadow=0;dashed=0;align=center;strokeColor=#006658;rounded=1;" parent="1" vertex="1">
                    <mxGeometry x="-370" y="-330" width="160" height="167" as="geometry"/>
                </mxCell>
                <mxCell id="fkgH5sSesJA9m9F06kSH-70" value="+ nom&#10;+ siret&#10;+ adresse&#10;+ cp&#10;+ ville&#10;+ tel&#10;+ numCefri&#10;+ finValidCefri" style="align=left;strokeColor=none;fillColor=none;spacingLeft=4;fontSize=12;verticalAlign=top;resizable=0;rotatable=0;part=1;fontColor=#5C5C5C;rounded=1;" parent="fkgH5sSesJA9m9F06kSH-69" vertex="1">
                    <mxGeometry y="30" width="160" height="137" as="geometry"/>
                </mxCell>
                <mxCell id="fkgH5sSesJA9m9F06kSH-85" value="&lt;table border=&quot;1&quot; width=&quot;100%&quot; cellpadding=&quot;4&quot; style=&quot;width: 100% ; height: 100% ; border-collapse: collapse&quot;&gt;&lt;tbody&gt;&lt;tr&gt;&lt;th align=&quot;center&quot;&gt;&lt;b&gt;&lt;font color=&quot;#009900&quot;&gt;FORMATIONS&lt;/font&gt;&lt;/b&gt;&lt;/th&gt;&lt;/tr&gt;&lt;tr&gt;&lt;td align=&quot;center&quot;&gt;&lt;div style=&quot;text-align: left&quot;&gt;&lt;b&gt;SAVOIR COMMUN DU NUCLEAIRE (Volet 1E)&lt;/b&gt;&lt;/div&gt;&lt;ul&gt;&lt;li style=&quot;text-align: left&quot;&gt;SCN 1&lt;/li&gt;&lt;li style=&quot;text-align: left&quot;&gt;SCN 2&lt;/li&gt;&lt;/ul&gt;&lt;/td&gt;&lt;/tr&gt;&lt;tr&gt;&lt;td align=&quot;center&quot;&gt;&lt;div style=&quot;text-align: left&quot;&gt;&lt;b&gt;COMPLEMENT SURETE QUALITE&amp;nbsp;&lt;/b&gt;&lt;b&gt;(Volet 1F)&lt;/b&gt;&lt;/div&gt;&lt;ul&gt;&lt;li style=&quot;text-align: left&quot;&gt;CSQ&lt;/li&gt;&lt;/ul&gt;&lt;hr&gt;&lt;b&gt;&lt;div style=&quot;text-align: left&quot;&gt;&lt;b&gt;PREVENTION DES RISQUES&amp;nbsp;&lt;/b&gt;&lt;b&gt;(Volet 1G)&lt;/b&gt;&lt;/div&gt;&lt;/b&gt;&lt;ul&gt;&lt;li style=&quot;text-align: left&quot;&gt;RP 1&lt;/li&gt;&lt;li style=&quot;text-align: left&quot;&gt;RP 2&lt;/li&gt;&lt;/ul&gt;&lt;/td&gt;&lt;/tr&gt;&lt;/tbody&gt;&lt;/table&gt;" style="text;html=1;strokeColor=none;fillColor=none;overflow=fill;align=center;fontColor=#5C5C5C;rounded=1;" parent="1" vertex="1">
                    <mxGeometry x="460" y="100" width="330" height="410" as="geometry"/>
                </mxCell>
                <mxCell id="guk-Xugw-3NadFg6Y-Cf-7" style="edgeStyle=orthogonalEdgeStyle;orthogonalLoop=1;jettySize=auto;html=1;exitX=0.5;exitY=0;exitDx=0;exitDy=0;strokeColor=#006658;fontColor=#5C5C5C;" parent="1" source="guk-Xugw-3NadFg6Y-Cf-1" target="guk-Xugw-3NadFg6Y-Cf-5" edge="1">
                    <mxGeometry relative="1" as="geometry"/>
                </mxCell>
                <mxCell id="guk-Xugw-3NadFg6Y-Cf-1" value="user" style="swimlane;childLayout=stackLayout;horizontal=1;startSize=30;horizontalStack=0;fillColor=#21C0A5;fontColor=#5C5C5C;fontSize=14;fontStyle=0;strokeWidth=2;resizeParent=0;resizeLast=1;shadow=0;dashed=0;align=center;strokeColor=#006658;rounded=1;" parent="1" vertex="1">
                    <mxGeometry x="-360" y="-520" width="160" height="133" as="geometry"/>
                </mxCell>
                <mxCell id="guk-Xugw-3NadFg6Y-Cf-2" value="+ id - int(11) AI&#10;+ email - varchar(180)&#10;+ roles - longtext&#10;+ acces - boolean" style="align=left;strokeColor=none;fillColor=none;spacingLeft=4;fontSize=12;verticalAlign=top;resizable=0;rotatable=0;part=1;fontColor=#5C5C5C;rounded=1;" parent="guk-Xugw-3NadFg6Y-Cf-1" vertex="1">
                    <mxGeometry y="30" width="160" height="103" as="geometry"/>
                </mxCell>
                <mxCell id="guk-Xugw-3NadFg6Y-Cf-4" value="" style="group;fillColor=#21C0A5;strokeColor=#006658;fontColor=#5C5C5C;rounded=1;" parent="1" vertex="1" connectable="0">
                    <mxGeometry x="-250" y="-606" width="80" height="26" as="geometry"/>
                </mxCell>
                <mxCell id="guk-Xugw-3NadFg6Y-Cf-5" value="1 : 1" style="text;align=center;verticalAlign=middle;spacingLeft=4;spacingRight=4;strokeColor=#006658;fillColor=#21C0A5;rotatable=0;points=[[0,0.5],[1,0.5]];portConstraint=eastwest;fontSize=14;fontColor=#5C5C5C;rounded=1;" parent="guk-Xugw-3NadFg6Y-Cf-4" vertex="1">
                    <mxGeometry width="80" height="26" as="geometry"/>
                </mxCell>
                <mxCell id="guk-Xugw-3NadFg6Y-Cf-8" style="edgeStyle=orthogonalEdgeStyle;orthogonalLoop=1;jettySize=auto;html=1;exitX=1;exitY=0.5;exitDx=0;exitDy=0;entryX=0.388;entryY=0.004;entryDx=0;entryDy=0;entryPerimeter=0;strokeColor=#006658;fontColor=#5C5C5C;" parent="1" source="guk-Xugw-3NadFg6Y-Cf-5" target="fkgH5sSesJA9m9F06kSH-1" edge="1">
                    <mxGeometry relative="1" as="geometry"/>
                </mxCell>
            </root>
        </mxGraphModel>
    </diagram>
</mxfile>